<svg xmlns="http://www.w3.org/2000/svg" xmlns:xlink="http://www.w3.org/1999/xlink" width="500" zoomAndPan="magnify" viewBox="0 0 375 374.999991" height="500" preserveAspectRatio="xMidYMid meet" version="1.0"><defs><g/><clipPath id="71381df2fb"><path d="M 214.117188 135.933594 L 243.039062 135.933594 L 243.039062 165.578125 L 214.117188 165.578125 Z M 214.117188 135.933594 " clip-rule="nonzero"/></clipPath><clipPath id="95531506bf"><path d="M 222 140 L 307.398438 140 L 307.398438 221.375 L 222 221.375 Z M 222 140 " clip-rule="nonzero"/></clipPath><clipPath id="38a5ef6159"><path d="M 249.964844 112.808594 L 279.214844 112.808594 L 279.214844 139.808594 L 249.964844 139.808594 Z M 249.964844 112.808594 " clip-rule="nonzero"/></clipPath></defs><g fill="#f78f2e" fill-opacity="0.4"><g transform="translate(10.408945, 220.897476)"><g><path d="M 5.90625 -46.71875 L 59.703125 -68.5625 L 59.703125 -54.59375 L 24.484375 -40.8125 L 59.703125 -27.25 L 59.703125 -13.28125 L 5.90625 -35.109375 Z M 5.90625 -46.71875 "/></g></g></g><g fill="#f78f2e" fill-opacity="0.4"><g transform="translate(67.156838, 220.897476)"><g><path d="M 74.0625 -81.140625 L 33.828125 -16.234375 L 71.40625 -16.234375 L 71.40625 0 L 1.578125 0 L 41.703125 -64.921875 L 7.28125 -64.921875 L 7.28125 -81.140625 Z M 74.0625 -81.140625 "/></g></g></g><g fill="#f78f2e" fill-opacity="0.4"><g transform="translate(134.428363, 220.897476)"><g><path d="M 10.671875 -6 C 5.066406 -10.976562 2.265625 -17.367188 2.265625 -25.171875 C 2.265625 -32.984375 5.179688 -39.394531 11.015625 -44.40625 C 16.847656 -49.425781 24.0625 -51.9375 32.65625 -51.9375 C 41.113281 -51.9375 48.242188 -49.410156 54.046875 -44.359375 C 59.847656 -39.304688 62.75 -32.910156 62.75 -25.171875 C 62.75 -17.441406 59.910156 -11.066406 54.234375 -6.046875 C 48.566406 -1.035156 41.375 1.46875 32.65625 1.46875 C 23.601562 1.46875 16.273438 -1.019531 10.671875 -6 Z M 24.140625 -33.734375 C 21.878906 -31.503906 20.75 -28.648438 20.75 -25.171875 C 20.75 -21.703125 21.832031 -18.867188 24 -16.671875 C 26.164062 -14.472656 29.019531 -13.375 32.5625 -13.375 C 35.96875 -13.375 38.769531 -14.488281 40.96875 -16.71875 C 43.164062 -18.945312 44.265625 -21.769531 44.265625 -25.1875 C 44.265625 -28.65625 43.128906 -31.503906 40.859375 -33.734375 C 38.597656 -35.960938 35.832031 -37.078125 32.5625 -37.078125 C 29.21875 -37.078125 26.410156 -35.960938 24.140625 -33.734375 Z M 24.140625 -33.734375 "/></g></g></g><g fill="#f78f2e" fill-opacity="0.4"><g transform="translate(191.07791, 220.897476)"><g><path d="M 10.671875 -6 C 5.066406 -10.976562 2.265625 -17.367188 2.265625 -25.171875 C 2.265625 -32.984375 5.179688 -39.394531 11.015625 -44.40625 C 16.847656 -49.425781 24.0625 -51.9375 32.65625 -51.9375 C 41.113281 -51.9375 48.242188 -49.410156 54.046875 -44.359375 C 59.847656 -39.304688 62.75 -32.910156 62.75 -25.171875 C 62.75 -17.441406 59.910156 -11.066406 54.234375 -6.046875 C 48.566406 -1.035156 41.375 1.46875 32.65625 1.46875 C 23.601562 1.46875 16.273438 -1.019531 10.671875 -6 Z M 24.140625 -33.734375 C 21.878906 -31.503906 20.75 -28.648438 20.75 -25.171875 C 20.75 -21.703125 21.832031 -18.867188 24 -16.671875 C 26.164062 -14.472656 29.019531 -13.375 32.5625 -13.375 C 35.96875 -13.375 38.769531 -14.488281 40.96875 -16.71875 C 43.164062 -18.945312 44.265625 -21.769531 44.265625 -25.1875 C 44.265625 -28.65625 43.128906 -31.503906 40.859375 -33.734375 C 38.597656 -35.960938 35.832031 -37.078125 32.5625 -37.078125 C 29.21875 -37.078125 26.410156 -35.960938 24.140625 -33.734375 Z M 24.140625 -33.734375 "/></g></g></g><g fill="#f78f2e" fill-opacity="0.4"><g transform="translate(247.727457, 220.897476)"><g><path d="M 57.828125 -84.59375 L 17.3125 11.796875 L 2.265625 11.796875 L 42.78125 -84.59375 Z M 57.828125 -84.59375 "/></g></g></g><g fill="#f78f2e" fill-opacity="0.4"><g transform="translate(299.459406, 220.897476)"><g><path d="M 5.40625 -27.25 L 40.625 -40.8125 L 5.40625 -54.59375 L 5.40625 -68.5625 L 59.21875 -46.71875 L 59.21875 -35.109375 L 5.40625 -13.28125 Z M 5.40625 -27.25 "/></g></g></g><g fill="#f78f2e" fill-opacity="1"><g transform="translate(10.408945, 220.897476)"><g><path d="M 5.90625 -46.71875 L 59.703125 -68.5625 L 59.703125 -54.59375 L 24.484375 -40.8125 L 59.703125 -27.25 L 59.703125 -13.28125 L 5.90625 -35.109375 Z M 5.90625 -46.71875 "/></g></g></g><g fill="#f78f2e" fill-opacity="1"><g transform="translate(67.156838, 220.897476)"><g><path d="M 74.0625 -81.140625 L 33.828125 -16.234375 L 71.40625 -16.234375 L 71.40625 0 L 1.578125 0 L 41.703125 -64.921875 L 7.28125 -64.921875 L 7.28125 -81.140625 Z M 74.0625 -81.140625 "/></g></g></g><g fill="#f78f2e" fill-opacity="1"><g transform="translate(134.428363, 220.897476)"><g><path d="M 10.671875 -6 C 5.066406 -10.976562 2.265625 -17.367188 2.265625 -25.171875 C 2.265625 -32.984375 5.179688 -39.394531 11.015625 -44.40625 C 16.847656 -49.425781 24.0625 -51.9375 32.65625 -51.9375 C 41.113281 -51.9375 48.242188 -49.410156 54.046875 -44.359375 C 59.847656 -39.304688 62.75 -32.910156 62.75 -25.171875 C 62.75 -17.441406 59.910156 -11.066406 54.234375 -6.046875 C 48.566406 -1.035156 41.375 1.46875 32.65625 1.46875 C 23.601562 1.46875 16.273438 -1.019531 10.671875 -6 Z M 24.140625 -33.734375 C 21.878906 -31.503906 20.75 -28.648438 20.75 -25.171875 C 20.75 -21.703125 21.832031 -18.867188 24 -16.671875 C 26.164062 -14.472656 29.019531 -13.375 32.5625 -13.375 C 35.96875 -13.375 38.769531 -14.488281 40.96875 -16.71875 C 43.164062 -18.945312 44.265625 -21.769531 44.265625 -25.1875 C 44.265625 -28.65625 43.128906 -31.503906 40.859375 -33.734375 C 38.597656 -35.960938 35.832031 -37.078125 32.5625 -37.078125 C 29.21875 -37.078125 26.410156 -35.960938 24.140625 -33.734375 Z M 24.140625 -33.734375 "/></g></g></g><g fill="#f78f2e" fill-opacity="1"><g transform="translate(191.07791, 220.897476)"><g><path d="M 10.671875 -6 C 5.066406 -10.976562 2.265625 -17.367188 2.265625 -25.171875 C 2.265625 -32.984375 5.179688 -39.394531 11.015625 -44.40625 C 16.847656 -49.425781 24.0625 -51.9375 32.65625 -51.9375 C 41.113281 -51.9375 48.242188 -49.410156 54.046875 -44.359375 C 59.847656 -39.304688 62.75 -32.910156 62.75 -25.171875 C 62.75 -17.441406 59.910156 -11.066406 54.234375 -6.046875 C 48.566406 -1.035156 41.375 1.46875 32.65625 1.46875 C 23.601562 1.46875 16.273438 -1.019531 10.671875 -6 Z M 24.140625 -33.734375 C 21.878906 -31.503906 20.75 -28.648438 20.75 -25.171875 C 20.75 -21.703125 21.832031 -18.867188 24 -16.671875 C 26.164062 -14.472656 29.019531 -13.375 32.5625 -13.375 C 35.96875 -13.375 38.769531 -14.488281 40.96875 -16.71875 C 43.164062 -18.945312 44.265625 -21.769531 44.265625 -25.1875 C 44.265625 -28.65625 43.128906 -31.503906 40.859375 -33.734375 C 38.597656 -35.960938 35.832031 -37.078125 32.5625 -37.078125 C 29.21875 -37.078125 26.410156 -35.960938 24.140625 -33.734375 Z M 24.140625 -33.734375 "/></g></g></g><g fill="#f78f2e" fill-opacity="1"><g transform="translate(247.727457, 220.897476)"><g><path d="M 57.828125 -84.59375 L 17.3125 11.796875 L 2.265625 11.796875 L 42.78125 -84.59375 Z M 57.828125 -84.59375 "/></g></g></g><g fill="#f78f2e" fill-opacity="1"><g transform="translate(299.459406, 220.897476)"><g><path d="M 5.40625 -27.25 L 40.625 -40.8125 L 5.40625 -54.59375 L 5.40625 -68.5625 L 59.21875 -46.71875 L 59.21875 -35.109375 L 5.40625 -13.28125 Z M 5.40625 -27.25 "/></g></g></g><g clip-path="url(#71381df2fb)"><path fill="#f8f8f8" d="M 214.117188 135.933594 L 243.039062 135.933594 L 243.039062 165.535156 L 214.117188 165.535156 Z M 214.117188 135.933594 " fill-opacity="1" fill-rule="nonzero"/></g><g clip-path="url(#95531506bf)"><path fill="#242424" d="M 302.898438 157.476562 C 303.71875 159.859375 304.160156 162.308594 304.226562 164.824219 C 304.230469 164.996094 304.277344 165.011719 304.363281 164.863281 C 304.96875 163.84375 305.738281 162.300781 306.6875 160.230469 C 307.140625 159.238281 307.371094 158.3125 307.371094 157.445312 C 307.371094 157.0625 307.25 156.671875 307 156.265625 C 303.035156 149.777344 297.78125 144.394531 290.808594 141.203125 C 290.097656 140.875 289.390625 140.542969 288.6875 140.191406 C 287.527344 139.625 283.769531 141.003906 282.445312 141.558594 C 278.992188 142.984375 275.644531 144.628906 272.390625 146.476562 C 272.382812 146.484375 272.375 146.488281 272.371094 146.496094 C 272.34375 146.53125 272.347656 146.582031 272.382812 146.609375 C 272.390625 146.613281 272.402344 146.621094 272.410156 146.621094 C 274.101562 147.058594 278.222656 148.433594 279.179688 149.960938 C 279.296875 150.144531 279.417969 150.398438 279.550781 150.714844 C 281.519531 155.464844 283.972656 161.203125 285.308594 166.546875 C 285.386719 166.863281 285.378906 167.238281 285.382812 167.5625 C 285.382812 167.636719 285.355469 167.710938 285.3125 167.773438 C 284.484375 168.824219 283.324219 170.375 283.1875 171.816406 C 283.152344 172.164062 283.238281 172.570312 283.445312 173.035156 C 285.21875 177.035156 285.488281 181.941406 285.144531 186.21875 C 285.140625 186.222656 285.140625 186.222656 285.140625 186.230469 C 285.140625 186.28125 285.1875 186.328125 285.238281 186.328125 C 285.277344 186.328125 285.3125 186.304688 285.328125 186.269531 C 287.308594 182.507812 289.871094 179.203125 293.027344 176.355469 C 293.089844 176.304688 293.125 176.238281 293.132812 176.152344 C 293.316406 174.054688 293.214844 171.96875 292.832031 169.898438 C 292.828125 169.890625 292.828125 169.886719 292.832031 169.878906 C 292.839844 169.867188 292.855469 169.863281 292.871094 169.867188 C 292.878906 169.875 292.878906 169.875 292.882812 169.882812 C 293.59375 171.597656 294.058594 173.378906 294.273438 175.222656 C 294.273438 175.226562 294.277344 175.230469 294.277344 175.238281 C 294.289062 175.265625 294.316406 175.277344 294.347656 175.269531 C 294.355469 175.269531 294.355469 175.265625 294.359375 175.265625 L 297.648438 173.1875 C 297.699219 173.160156 297.730469 173.109375 297.738281 173.054688 C 298.097656 170.410156 298.011719 167.777344 297.476562 165.167969 C 297.476562 165.167969 297.476562 165.164062 297.476562 165.160156 C 297.476562 165.136719 297.496094 165.117188 297.519531 165.117188 C 297.535156 165.117188 297.550781 165.128906 297.558594 165.140625 C 298.566406 167.449219 299.121094 169.863281 299.222656 172.386719 C 299.222656 172.457031 299.28125 172.511719 299.347656 172.511719 C 299.386719 172.511719 299.417969 172.496094 299.441406 172.472656 C 300.625 171.304688 301.3125 169.789062 302.210938 168.390625 C 302.488281 167.96875 302.671875 167.53125 302.765625 167.082031 C 303.410156 163.898438 303.4375 160.703125 302.84375 157.496094 C 302.796875 157.242188 302.816406 157.238281 302.898438 157.476562 Z M 250.5625 158.578125 C 250.675781 155.609375 251.023438 152.925781 251.605469 150.515625 C 251.824219 149.625 252.277344 148.859375 253.074219 148.253906 C 254.445312 147.21875 255.167969 146.488281 256.933594 146.113281 C 256.980469 146.101562 257.015625 146.0625 257.015625 146.015625 C 257.015625 145.976562 256.992188 145.9375 256.953125 145.921875 C 251.160156 143.273438 242.128906 139.695312 235.894531 142.226562 C 235.097656 142.546875 234.207031 143.105469 233.222656 143.894531 C 230.4375 146.125 227.792969 148.507812 225.277344 151.039062 C 223.960938 152.363281 222.246094 154.113281 222.167969 156.105469 C 221.980469 160.945312 223.464844 166.800781 227.535156 169.757812 C 227.550781 169.769531 227.5625 169.773438 227.578125 169.773438 C 227.621094 169.773438 227.648438 169.742188 227.648438 169.699219 C 227.648438 169.695312 227.648438 169.691406 227.648438 169.683594 C 226.988281 167.167969 226.761719 164.613281 226.957031 162.019531 C 226.960938 161.984375 226.976562 161.972656 227 161.972656 C 227.027344 161.972656 227.042969 161.988281 227.046875 162.019531 C 227.277344 165.179688 228.09375 168.179688 229.5 171.015625 C 229.542969 171.097656 229.601562 171.164062 229.6875 171.214844 L 234.585938 174 C 234.722656 174.078125 234.773438 174.042969 234.734375 173.890625 C 234.167969 171.34375 234.078125 168.78125 234.484375 166.203125 C 234.488281 166.179688 234.507812 166.164062 234.53125 166.164062 C 234.558594 166.164062 234.578125 166.183594 234.582031 166.207031 C 234.734375 169.269531 235.464844 172.195312 236.761719 174.976562 C 236.800781 175.0625 236.863281 175.125 236.957031 175.164062 L 242.367188 177.457031 C 242.382812 177.460938 242.398438 177.464844 242.414062 177.464844 C 242.476562 177.464844 242.53125 177.414062 242.53125 177.351562 C 242.53125 177.339844 242.527344 177.335938 242.527344 177.328125 C 242.085938 175.015625 242.066406 172.691406 242.460938 170.367188 C 242.46875 170.347656 242.480469 170.339844 242.496094 170.339844 L 242.558594 170.34375 C 242.578125 170.34375 242.589844 170.355469 242.589844 170.375 C 242.644531 173.011719 243.179688 175.550781 244.195312 177.984375 C 244.226562 178.058594 244.28125 178.109375 244.359375 178.132812 C 248 179.421875 250.59375 180.226562 252.144531 180.554688 C 255.921875 181.355469 259.589844 182.507812 263.148438 184.015625 C 263.234375 184.054688 263.273438 184.023438 263.257812 183.925781 C 262.867188 181.367188 262.769531 178.792969 262.960938 176.207031 C 262.96875 176.179688 262.992188 176.164062 263.015625 176.164062 C 263.039062 176.164062 263.058594 176.179688 263.066406 176.203125 C 263.570312 180.066406 264.824219 183.6875 266.828125 187.058594 C 267.167969 187.628906 267.886719 188.46875 268.988281 189.578125 C 277.761719 198.414062 290.03125 194.066406 298.910156 188.347656 C 298.917969 188.34375 298.929688 188.328125 298.929688 188.3125 C 298.929688 188.292969 298.910156 188.277344 298.890625 188.277344 C 298.882812 188.277344 298.878906 188.277344 298.875 188.28125 C 295.578125 189.265625 292.222656 190.03125 288.808594 190.574219 C 286.933594 190.875 285.054688 190.921875 283.171875 190.710938 C 283.097656 190.703125 283.039062 190.640625 283.039062 190.566406 C 283.039062 190.5625 283.039062 190.5625 283.039062 190.558594 C 283.578125 181.484375 283.164062 171.476562 277.769531 163.738281 C 277.707031 163.644531 277.726562 163.621094 277.824219 163.667969 C 279.625 164.460938 280.863281 166.539062 281.625 168.289062 C 281.671875 168.390625 281.722656 168.394531 281.785156 168.300781 C 282.566406 167.101562 283.167969 165.5625 282.785156 164.121094 C 281.613281 159.71875 279.640625 155.792969 277.777344 151.671875 C 277.707031 151.507812 277.507812 151.332031 277.183594 151.144531 C 274.679688 149.691406 272.074219 148.449219 269.363281 147.425781 C 267.894531 146.871094 265.996094 146.320312 264.417969 146.542969 C 264.292969 146.5625 263.820312 146.660156 263 146.84375 C 260.636719 147.367188 256.828125 148.175781 254.792969 149.941406 C 254.269531 150.398438 253.769531 151.105469 253.289062 152.0625 C 252.234375 154.171875 251.328125 156.34375 250.578125 158.578125 C 250.566406 158.605469 250.5625 158.605469 250.5625 158.578125 Z M 259.746094 163.152344 C 262.640625 163.933594 264.046875 166.511719 263.648438 169.402344 C 263.636719 169.507812 263.597656 169.519531 263.527344 169.4375 C 262.5 168.097656 261.191406 167.128906 259.609375 166.53125 C 259.523438 166.5 259.476562 166.4375 259.464844 166.351562 C 259.300781 165.3125 259.335938 164.285156 259.566406 163.261719 C 259.589844 163.164062 259.648438 163.128906 259.746094 163.152344 Z M 281.9375 200.371094 C 284.136719 199.589844 285.921875 198.257812 287.292969 196.367188 C 287.363281 196.265625 287.34375 196.238281 287.226562 196.285156 C 281.820312 198.484375 276.15625 198.144531 270.613281 196.449219 C 270.519531 196.417969 270.476562 196.453125 270.480469 196.550781 C 270.714844 202.21875 268.808594 207.0625 264.769531 211.085938 C 263.359375 212.488281 262.09375 213.601562 260.96875 214.425781 C 260.898438 214.472656 260.878906 214.535156 260.910156 214.609375 C 261.671875 216.722656 261.867188 218.890625 261.5 221.113281 C 261.484375 221.191406 261.519531 221.222656 261.59375 221.199219 C 271.738281 218.046875 278.554688 210.488281 281.769531 200.539062 C 281.800781 200.453125 281.851562 200.398438 281.9375 200.371094 Z M 281.9375 200.371094 " fill-opacity="1" fill-rule="evenodd"/></g><g clip-path="url(#38a5ef6159)"><path fill="#000000" d="M 270.808594 112.808594 C 270.574219 112.796875 270.371094 112.984375 270.363281 113.222656 C 270.351562 113.464844 270.535156 113.667969 270.773438 113.679688 L 270.792969 113.679688 C 271.019531 113.679688 271.210938 113.496094 271.21875 113.261719 C 271.230469 113.023438 271.046875 112.820312 270.808594 112.808594 Z M 258.972656 112.855469 C 258.734375 112.828125 258.519531 112.996094 258.492188 113.238281 C 258.464844 113.476562 258.636719 113.691406 258.871094 113.71875 L 258.917969 113.71875 C 259.132812 113.71875 259.320312 113.558594 259.34375 113.335938 C 259.375 113.097656 259.203125 112.878906 258.972656 112.855469 Z M 269.125 113.132812 C 269.070312 113.132812 269.011719 113.140625 268.957031 113.164062 C 268.738281 113.25 268.625 113.503906 268.710938 113.730469 C 268.78125 113.898438 268.945312 114.007812 269.117188 114.007812 C 269.167969 114.007812 269.21875 114 269.269531 113.976562 C 269.488281 113.890625 269.601562 113.636719 269.515625 113.414062 C 269.453125 113.246094 269.292969 113.140625 269.125 113.132812 Z M 257.195312 113.183594 C 257.140625 113.191406 257.085938 113.214844 257.035156 113.246094 C 256.835938 113.371094 256.773438 113.640625 256.902344 113.847656 C 256.980469 113.976562 257.121094 114.050781 257.265625 114.050781 C 257.339844 114.050781 257.421875 114.03125 257.492188 113.980469 C 257.695312 113.855469 257.753906 113.585938 257.628906 113.382812 C 257.535156 113.230469 257.363281 113.15625 257.195312 113.183594 Z M 260.574219 113.363281 C 260.40625 113.359375 260.242188 113.453125 260.167969 113.613281 C 260.0625 113.828125 260.160156 114.089844 260.375 114.195312 C 260.429688 114.222656 260.492188 114.234375 260.554688 114.234375 C 260.71875 114.234375 260.871094 114.140625 260.945312 113.984375 C 261.042969 113.769531 260.953125 113.511719 260.738281 113.40625 C 260.683594 113.378906 260.628906 113.367188 260.574219 113.363281 Z M 272.335938 113.480469 C 272.226562 113.480469 272.117188 113.523438 272.03125 113.605469 C 271.859375 113.777344 271.859375 114.050781 272.027344 114.222656 C 272.109375 114.308594 272.21875 114.351562 272.332031 114.351562 C 272.441406 114.351562 272.550781 114.3125 272.632812 114.226562 C 272.800781 114.058594 272.804688 113.78125 272.636719 113.613281 C 272.554688 113.527344 272.445312 113.484375 272.335938 113.480469 Z M 267.519531 113.945312 C 267.460938 113.953125 267.40625 113.976562 267.355469 114.007812 C 267.160156 114.136719 267.097656 114.410156 267.226562 114.613281 C 267.308594 114.738281 267.453125 114.808594 267.59375 114.808594 C 267.671875 114.808594 267.753906 114.789062 267.824219 114.738281 C 268.023438 114.613281 268.078125 114.34375 267.953125 114.140625 C 267.859375 113.988281 267.683594 113.917969 267.519531 113.945312 Z M 262.039062 114.25 C 261.824219 114.242188 261.683594 114.34375 261.617188 114.550781 C 261.550781 114.757812 261.605469 114.921875 261.785156 115.042969 C 261.785156 115.042969 261.785156 115.046875 261.785156 115.046875 C 262.492188 115.550781 263.234375 116.199219 263.984375 116.953125 C 263.117188 117.886719 262.257812 118.957031 261.421875 120.140625 C 259.773438 120.285156 258.238281 120.550781 256.851562 120.90625 C 256.585938 119.859375 256.410156 118.875 256.347656 118.003906 C 256.339844 117.890625 256.296875 117.792969 256.214844 117.714844 C 256.132812 117.636719 256.035156 117.597656 255.921875 117.59375 C 255.796875 117.59375 255.6875 117.640625 255.601562 117.734375 C 255.515625 117.828125 255.476562 117.9375 255.488281 118.066406 C 255.554688 119.003906 255.742188 120.039062 256.015625 121.128906 C 255.167969 121.378906 254.382812 121.667969 253.683594 121.988281 C 253.644531 122.003906 253.609375 122.027344 253.578125 122.054688 C 253.554688 122.058594 253.527344 122.058594 253.5 122.074219 C 253.285156 122.171875 253.195312 122.433594 253.292969 122.652344 C 253.367188 122.808594 253.523438 122.898438 253.6875 122.898438 C 253.746094 122.898438 253.808594 122.886719 253.867188 122.859375 C 253.890625 122.851562 253.90625 122.832031 253.925781 122.816406 C 253.964844 122.808594 254.003906 122.796875 254.039062 122.78125 C 254.691406 122.480469 255.429688 122.210938 256.234375 121.972656 C 256.632812 123.351562 257.179688 124.8125 257.867188 126.3125 C 257.261719 127.632812 256.761719 128.929688 256.378906 130.15625 C 255.515625 129.910156 254.726562 129.625 254.039062 129.3125 C 254.039062 129.3125 254.035156 129.308594 254.035156 129.308594 C 253.984375 129.285156 253.929688 129.273438 253.875 129.269531 C 253.683594 129.265625 253.546875 129.347656 253.464844 129.527344 C 253.386719 129.703125 253.414062 129.863281 253.546875 130.003906 C 253.546875 130.003906 253.546875 130.007812 253.546875 130.007812 C 253.582031 130.046875 253.628906 130.078125 253.675781 130.101562 C 253.679688 130.105469 253.683594 130.105469 253.6875 130.109375 C 253.691406 130.113281 253.699219 130.113281 253.707031 130.113281 C 254.433594 130.445312 255.25 130.738281 256.136719 130.996094 C 256.011719 131.445312 255.898438 131.886719 255.808594 132.316406 C 255.78125 132.433594 255.800781 132.546875 255.863281 132.648438 C 255.929688 132.753906 256.019531 132.816406 256.136719 132.84375 C 256.257812 132.867188 256.367188 132.847656 256.464844 132.78125 C 256.566406 132.710938 256.628906 132.617188 256.652344 132.496094 C 256.738281 132.085938 256.847656 131.65625 256.96875 131.21875 C 258.210938 131.53125 259.574219 131.761719 261.023438 131.910156 C 261.980469 133.320312 262.984375 134.582031 263.988281 135.664062 C 263.554688 136.101562 263.125 136.507812 262.703125 136.863281 C 262.609375 136.9375 262.558594 137.035156 262.546875 137.15625 C 262.535156 137.277344 262.566406 137.386719 262.644531 137.480469 C 262.71875 137.570312 262.816406 137.625 262.9375 137.632812 C 263.054688 137.644531 263.160156 137.609375 263.253906 137.53125 C 263.691406 137.164062 264.140625 136.742188 264.585938 136.292969 C 265.21875 136.929688 265.847656 137.496094 266.46875 137.972656 C 266.472656 137.976562 266.472656 137.980469 266.476562 137.980469 C 266.570312 138.054688 266.675781 138.085938 266.796875 138.070312 C 266.917969 138.054688 267.011719 138 267.085938 137.902344 C 267.160156 137.804688 267.1875 137.695312 267.167969 137.574219 C 267.152344 137.453125 267.09375 137.359375 266.996094 137.285156 C 266.410156 136.832031 265.800781 136.285156 265.1875 135.667969 C 266.191406 134.585938 267.195312 133.328125 268.152344 131.914062 C 269.609375 131.769531 270.976562 131.535156 272.226562 131.222656 C 272.429688 131.96875 272.589844 132.679688 272.699219 133.347656 C 272.71875 133.46875 272.777344 133.5625 272.871094 133.632812 C 272.96875 133.703125 273.074219 133.726562 273.191406 133.707031 C 273.308594 133.6875 273.402344 133.628906 273.472656 133.53125 C 273.542969 133.433594 273.566406 133.324219 273.546875 133.207031 C 273.433594 132.507812 273.269531 131.769531 273.058594 131.003906 C 273.789062 130.796875 274.476562 130.5625 275.097656 130.300781 C 275.210938 130.253906 275.289062 130.175781 275.335938 130.0625 C 275.382812 129.953125 275.382812 129.839844 275.335938 129.726562 C 275.292969 129.617188 275.214844 129.535156 275.101562 129.492188 C 274.992188 129.445312 274.878906 129.445312 274.769531 129.496094 C 274.175781 129.742188 273.515625 129.96875 272.808594 130.171875 C 272.425781 128.933594 271.925781 127.636719 271.316406 126.304688 C 272.003906 124.804688 272.550781 123.34375 272.949219 121.964844 C 273.441406 122.109375 273.914062 122.261719 274.351562 122.429688 C 274.460938 122.472656 274.570312 122.472656 274.679688 122.421875 C 274.789062 122.375 274.863281 122.292969 274.90625 122.179688 C 274.949219 122.070312 274.949219 121.957031 274.898438 121.847656 C 274.851562 121.738281 274.773438 121.660156 274.664062 121.617188 C 274.660156 121.617188 274.660156 121.617188 274.660156 121.617188 C 274.660156 121.617188 274.65625 121.617188 274.65625 121.617188 C 274.195312 121.4375 273.695312 121.277344 273.179688 121.125 C 273.371094 120.375 273.515625 119.648438 273.609375 118.96875 C 273.609375 118.96875 273.609375 118.964844 273.609375 118.964844 C 273.628906 118.835938 273.597656 118.722656 273.515625 118.621094 C 273.429688 118.519531 273.324219 118.46875 273.195312 118.464844 C 273.085938 118.464844 272.988281 118.5 272.90625 118.570312 C 272.820312 118.644531 272.773438 118.734375 272.757812 118.84375 C 272.757812 118.84375 272.757812 118.84375 272.757812 118.847656 C 272.671875 119.488281 272.53125 120.175781 272.351562 120.894531 C 270.957031 120.542969 269.410156 120.285156 267.757812 120.140625 C 266.921875 118.957031 266.058594 117.878906 265.191406 116.945312 C 265.8125 116.320312 266.429688 115.765625 267.023438 115.308594 C 267.1875 115.1875 267.242188 115.023438 267.175781 114.824219 C 267.113281 114.625 266.976562 114.527344 266.769531 114.523438 C 266.671875 114.523438 266.582031 114.554688 266.503906 114.617188 C 265.875 115.101562 265.230469 115.675781 264.582031 116.328125 C 263.804688 115.546875 263.03125 114.867188 262.28125 114.332031 C 262.207031 114.28125 262.128906 114.253906 262.039062 114.25 Z M 256.21875 114.535156 C 256.050781 114.539062 255.894531 114.644531 255.832031 114.8125 C 255.746094 115.035156 255.859375 115.289062 256.082031 115.375 C 256.132812 115.398438 256.183594 115.40625 256.230469 115.40625 C 256.40625 115.40625 256.570312 115.296875 256.636719 115.121094 C 256.722656 114.902344 256.609375 114.648438 256.386719 114.5625 C 256.332031 114.539062 256.273438 114.53125 256.21875 114.535156 Z M 273.179688 115.011719 C 273.125 115.003906 273.070312 115.007812 273.011719 115.023438 C 272.78125 115.082031 272.644531 115.316406 272.699219 115.550781 C 272.75 115.75 272.925781 115.878906 273.113281 115.878906 C 273.148438 115.878906 273.1875 115.875 273.222656 115.867188 C 273.449219 115.804688 273.59375 115.570312 273.53125 115.335938 C 273.488281 115.164062 273.347656 115.039062 273.179688 115.011719 Z M 255.929688 116.238281 C 255.695312 116.222656 255.488281 116.402344 255.476562 116.648438 C 255.457031 116.886719 255.636719 117.089844 255.878906 117.105469 C 255.886719 117.109375 255.894531 117.109375 255.90625 117.109375 C 256.128906 117.109375 256.316406 116.929688 256.335938 116.699219 C 256.347656 116.460938 256.167969 116.25 255.929688 116.238281 Z M 273.304688 116.734375 C 273.070312 116.734375 272.878906 116.929688 272.878906 117.171875 C 272.878906 117.414062 273.074219 117.605469 273.308594 117.605469 C 273.546875 117.605469 273.738281 117.410156 273.738281 117.167969 C 273.738281 116.929688 273.546875 116.734375 273.304688 116.734375 Z M 264.589844 117.578125 C 265.273438 118.316406 265.957031 119.152344 266.632812 120.058594 C 265.972656 120.023438 265.300781 120 264.613281 120 C 263.910156 120 263.222656 120.023438 262.542969 120.0625 C 263.21875 119.152344 263.902344 118.320312 264.589844 117.578125 Z M 264.613281 120.871094 C 265.53125 120.871094 266.425781 120.90625 267.292969 120.972656 C 267.890625 121.835938 268.476562 122.757812 269.03125 123.734375 C 269.519531 124.59375 269.96875 125.453125 270.367188 126.300781 C 269.964844 127.15625 269.515625 128.023438 269.023438 128.890625 C 269.019531 128.894531 269.019531 128.898438 269.015625 128.902344 C 269.015625 128.90625 269.011719 128.910156 269.007812 128.914062 C 268.578125 129.671875 268.125 130.398438 267.664062 131.089844 C 266.683594 131.175781 265.664062 131.222656 264.613281 131.222656 C 263.550781 131.222656 262.515625 131.175781 261.519531 131.085938 C 261.058594 130.390625 260.601562 129.667969 260.167969 128.90625 C 259.671875 128.035156 259.226562 127.164062 258.824219 126.300781 C 259.226562 125.449219 259.671875 124.582031 260.164062 123.714844 C 260.167969 123.714844 260.167969 123.710938 260.167969 123.710938 C 260.167969 123.707031 260.171875 123.707031 260.171875 123.703125 C 260.71875 122.742188 261.296875 121.835938 261.882812 120.980469 C 262.769531 120.910156 263.675781 120.871094 264.613281 120.871094 Z M 268.402344 121.082031 C 269.734375 121.226562 270.984375 121.449219 272.117188 121.734375 C 271.789062 122.863281 271.359375 124.054688 270.824219 125.28125 C 270.496094 124.625 270.152344 123.964844 269.777344 123.300781 C 269.332031 122.523438 268.871094 121.789062 268.402344 121.082031 Z M 260.773438 121.089844 C 260.3125 121.785156 259.859375 122.507812 259.425781 123.269531 C 259.425781 123.269531 259.421875 123.273438 259.421875 123.277344 C 259.421875 123.277344 259.421875 123.28125 259.421875 123.28125 C 259.039062 123.949219 258.691406 124.613281 258.363281 125.277344 C 257.832031 124.054688 257.398438 122.867188 257.070312 121.75 C 258.199219 121.460938 259.445312 121.238281 260.773438 121.089844 Z M 276.113281 122.300781 C 275.945312 122.285156 275.773438 122.371094 275.691406 122.53125 C 275.578125 122.742188 275.660156 123.003906 275.871094 123.117188 C 275.9375 123.152344 276.003906 123.171875 276.074219 123.171875 C 276.226562 123.171875 276.375 123.085938 276.453125 122.941406 C 276.5625 122.730469 276.480469 122.464844 276.277344 122.351562 C 276.222656 122.324219 276.167969 122.308594 276.113281 122.300781 Z M 252.269531 122.902344 C 252.160156 122.882812 252.042969 122.90625 251.945312 122.972656 C 251.75 123.113281 251.703125 123.382812 251.839844 123.578125 C 251.925781 123.703125 252.058594 123.765625 252.191406 123.765625 C 252.277344 123.765625 252.367188 123.742188 252.4375 123.683594 L 252.441406 123.6875 C 252.636719 123.550781 252.683594 123.273438 252.546875 123.078125 C 252.476562 122.980469 252.375 122.921875 252.269531 122.902344 Z M 277.46875 123.261719 C 277.359375 123.269531 277.253906 123.324219 277.175781 123.414062 C 277.019531 123.597656 277.046875 123.871094 277.226562 124.027344 C 277.308594 124.097656 277.40625 124.132812 277.503906 124.132812 C 277.625 124.132812 277.746094 124.082031 277.832031 123.976562 C 277.984375 123.792969 277.960938 123.519531 277.78125 123.367188 C 277.691406 123.289062 277.578125 123.253906 277.46875 123.261719 Z M 264.613281 123.699219 C 263.1875 123.699219 262.03125 124.867188 262.03125 126.3125 C 262.03125 127.753906 263.1875 128.925781 264.613281 128.925781 C 266.039062 128.925781 267.195312 127.753906 267.195312 126.3125 C 267.195312 124.867188 266.039062 123.699219 264.613281 123.699219 Z M 250.882812 124.09375 C 250.773438 124.109375 250.671875 124.171875 250.601562 124.269531 C 250.464844 124.464844 250.507812 124.738281 250.703125 124.878906 C 250.773438 124.929688 250.863281 124.960938 250.949219 124.960938 C 251.085938 124.960938 251.21875 124.894531 251.296875 124.777344 C 251.441406 124.582031 251.394531 124.3125 251.203125 124.171875 C 251.109375 124.101562 250.992188 124.074219 250.882812 124.09375 Z M 278.5625 124.605469 C 278.507812 124.605469 278.449219 124.621094 278.398438 124.648438 C 278.179688 124.746094 278.085938 125.003906 278.1875 125.222656 C 278.257812 125.382812 278.414062 125.472656 278.578125 125.472656 C 278.636719 125.472656 278.699219 125.460938 278.757812 125.433594 C 278.972656 125.335938 279.066406 125.074219 278.96875 124.855469 C 278.890625 124.691406 278.730469 124.597656 278.5625 124.605469 Z M 250.40625 125.707031 C 250.167969 125.722656 249.984375 125.921875 249.996094 126.164062 C 250.003906 126.398438 250.195312 126.578125 250.425781 126.578125 L 250.445312 126.578125 C 250.679688 126.570312 250.863281 126.367188 250.851562 126.128906 C 250.84375 125.882812 250.640625 125.699219 250.40625 125.707031 Z M 278.65625 126.300781 C 278.492188 126.316406 278.339844 126.433594 278.289062 126.601562 L 278.289062 126.605469 C 278.21875 126.832031 278.34375 127.078125 278.574219 127.152344 C 278.613281 127.164062 278.660156 127.167969 278.699219 127.167969 C 278.882812 127.167969 279.050781 127.050781 279.109375 126.863281 C 279.179688 126.636719 279.054688 126.394531 278.828125 126.320312 C 278.769531 126.300781 278.714844 126.292969 278.65625 126.300781 Z M 251.117188 127.292969 C 251.007812 127.28125 250.894531 127.3125 250.800781 127.386719 C 250.617188 127.539062 250.585938 127.8125 250.734375 128 C 250.816406 128.105469 250.941406 128.160156 251.070312 128.160156 C 251.164062 128.160156 251.261719 128.128906 251.339844 128.066406 C 251.523438 127.917969 251.550781 127.644531 251.40625 127.457031 C 251.332031 127.359375 251.226562 127.304688 251.117188 127.292969 Z M 258.359375 127.324219 C 258.691406 127.992188 259.039062 128.667969 259.425781 129.34375 C 259.742188 129.902344 260.070312 130.4375 260.402344 130.960938 C 259.269531 130.820312 258.195312 130.625 257.210938 130.382812 C 257.515625 129.402344 257.902344 128.375 258.359375 127.324219 Z M 270.828125 127.324219 C 271.285156 128.378906 271.667969 129.40625 271.972656 130.386719 C 270.980469 130.632812 269.910156 130.832031 268.769531 130.972656 C 269.105469 130.445312 269.433594 129.910156 269.753906 129.351562 C 269.761719 129.332031 269.769531 129.320312 269.777344 129.304688 C 270.15625 128.640625 270.5 127.980469 270.828125 127.324219 Z M 277.765625 127.730469 C 277.65625 127.730469 277.542969 127.769531 277.457031 127.851562 C 277.285156 128.015625 277.28125 128.296875 277.441406 128.46875 C 277.527344 128.558594 277.640625 128.601562 277.753906 128.601562 C 277.863281 128.601562 277.96875 128.5625 278.050781 128.484375 C 278.222656 128.316406 278.226562 128.039062 278.066406 127.863281 C 277.984375 127.78125 277.875 127.734375 277.765625 127.730469 Z M 252.269531 128.445312 C 252.164062 128.46875 252.0625 128.53125 251.996094 128.632812 C 251.863281 128.832031 251.917969 129.101562 252.117188 129.238281 C 252.1875 129.285156 252.269531 129.3125 252.351562 129.3125 C 252.496094 129.3125 252.628906 129.242188 252.710938 129.113281 C 252.84375 128.914062 252.792969 128.644531 252.59375 128.515625 C 252.496094 128.445312 252.378906 128.425781 252.269531 128.445312 Z M 276.316406 128.757812 C 276.257812 128.765625 276.203125 128.785156 276.152344 128.8125 C 275.949219 128.933594 275.875 129.203125 275.996094 129.40625 C 276.074219 129.550781 276.21875 129.625 276.367188 129.625 C 276.441406 129.625 276.515625 129.605469 276.582031 129.566406 C 276.789062 129.445312 276.859375 129.179688 276.742188 128.976562 C 276.652344 128.816406 276.480469 128.738281 276.316406 128.757812 Z M 262.148438 132.003906 C 262.949219 132.058594 263.769531 132.09375 264.613281 132.09375 C 265.4375 132.09375 266.242188 132.058594 267.03125 132.007812 C 266.230469 133.132812 265.410156 134.152344 264.589844 135.039062 C 263.769531 134.148438 262.949219 133.128906 262.148438 132.003906 Z M 256 133.691406 C 255.761719 133.664062 255.546875 133.839844 255.523438 134.078125 C 255.5 134.320312 255.667969 134.53125 255.90625 134.558594 C 255.921875 134.558594 255.933594 134.5625 255.953125 134.5625 C 256.167969 134.5625 256.355469 134.398438 256.378906 134.171875 C 256.402344 133.929688 256.234375 133.71875 256 133.691406 Z M 273.265625 134.335938 C 273.027344 134.347656 272.847656 134.554688 272.863281 134.792969 C 272.875 135.023438 273.0625 135.203125 273.292969 135.203125 L 273.316406 135.203125 C 273.554688 135.191406 273.734375 134.984375 273.722656 134.742188 C 273.707031 134.5 273.503906 134.320312 273.265625 134.335938 Z M 255.871094 135.429688 C 255.628906 135.441406 255.449219 135.648438 255.460938 135.886719 C 255.472656 136.117188 255.664062 136.300781 255.890625 136.300781 L 255.914062 136.300781 C 256.148438 136.285156 256.332031 136.082031 256.316406 135.84375 C 256.308594 135.605469 256.105469 135.414062 255.871094 135.429688 Z M 273.304688 136.074219 C 273.070312 136.042969 272.847656 136.210938 272.820312 136.449219 C 272.789062 136.6875 272.953125 136.90625 273.1875 136.941406 C 273.207031 136.941406 273.226562 136.945312 273.246094 136.945312 C 273.457031 136.945312 273.644531 136.785156 273.671875 136.566406 C 273.703125 136.328125 273.539062 136.109375 273.304688 136.074219 Z M 256.21875 137.136719 C 256.164062 137.132812 256.105469 137.140625 256.050781 137.164062 C 255.828125 137.242188 255.710938 137.492188 255.789062 137.71875 C 255.851562 137.898438 256.015625 138.007812 256.191406 138.007812 C 256.242188 138.007812 256.292969 138 256.339844 137.980469 C 256.5625 137.902344 256.679688 137.648438 256.597656 137.429688 C 256.539062 137.253906 256.386719 137.144531 256.21875 137.136719 Z M 262.027344 137.5625 C 261.917969 137.542969 261.800781 137.566406 261.703125 137.632812 C 261.507812 137.773438 261.460938 138.042969 261.59375 138.238281 C 261.679688 138.359375 261.8125 138.425781 261.949219 138.425781 C 262.035156 138.425781 262.121094 138.402344 262.195312 138.351562 C 262.390625 138.210938 262.4375 137.941406 262.304688 137.742188 C 262.234375 137.644531 262.132812 137.582031 262.027344 137.5625 Z M 272.789062 137.730469 C 272.625 137.707031 272.453125 137.785156 272.363281 137.941406 C 272.246094 138.152344 272.316406 138.417969 272.523438 138.539062 C 272.589844 138.578125 272.664062 138.59375 272.738281 138.59375 C 272.886719 138.59375 273.027344 138.515625 273.109375 138.378906 C 273.226562 138.167969 273.160156 137.902344 272.953125 137.785156 C 272.902344 137.753906 272.84375 137.734375 272.789062 137.730469 Z M 268.214844 138.160156 C 268.046875 138.140625 267.878906 138.226562 267.792969 138.382812 C 267.679688 138.589844 267.753906 138.855469 267.957031 138.972656 C 268.027344 139.007812 268.097656 139.027344 268.167969 139.027344 C 268.320312 139.027344 268.464844 138.949219 268.542969 138.804688 C 268.660156 138.59375 268.585938 138.328125 268.375 138.210938 C 268.324219 138.183594 268.269531 138.164062 268.214844 138.160156 Z M 260.449219 138.429688 C 260.394531 138.429688 260.335938 138.445312 260.28125 138.46875 C 260.066406 138.570312 259.972656 138.832031 260.070312 139.046875 C 260.144531 139.210938 260.300781 139.300781 260.464844 139.300781 C 260.523438 139.300781 260.582031 139.289062 260.644531 139.261719 C 260.859375 139.160156 260.953125 138.898438 260.855469 138.683594 C 260.78125 138.519531 260.617188 138.425781 260.449219 138.429688 Z M 257.101562 138.535156 C 256.992188 138.558594 256.890625 138.621094 256.824219 138.71875 C 256.691406 138.914062 256.738281 139.1875 256.9375 139.324219 C 257.011719 139.375 257.097656 139.402344 257.179688 139.402344 C 257.316406 139.402344 257.449219 139.335938 257.535156 139.207031 C 257.667969 139.011719 257.617188 138.742188 257.421875 138.605469 C 257.324219 138.535156 257.210938 138.515625 257.101562 138.535156 Z M 271.488281 138.820312 C 271.433594 138.816406 271.375 138.824219 271.316406 138.84375 C 271.09375 138.917969 270.96875 139.160156 271.042969 139.390625 C 271.101562 139.574219 271.269531 139.691406 271.453125 139.691406 C 271.496094 139.691406 271.542969 139.683594 271.585938 139.671875 C 271.8125 139.597656 271.933594 139.347656 271.859375 139.121094 C 271.804688 138.949219 271.65625 138.835938 271.488281 138.820312 Z M 269.6875 138.824219 C 269.523438 138.851562 269.382812 138.976562 269.339844 139.148438 C 269.28125 139.382812 269.421875 139.617188 269.648438 139.679688 L 269.648438 139.675781 C 269.683594 139.6875 269.722656 139.691406 269.757812 139.691406 C 269.945312 139.691406 270.121094 139.558594 270.171875 139.363281 C 270.230469 139.125 270.089844 138.890625 269.859375 138.832031 C 269.800781 138.816406 269.742188 138.816406 269.6875 138.824219 Z M 258.78125 138.917969 C 258.546875 138.9375 258.367188 139.148438 258.390625 139.386719 C 258.410156 139.613281 258.601562 139.785156 258.820312 139.785156 L 258.859375 139.785156 C 259.09375 139.761719 259.273438 139.546875 259.246094 139.308594 C 259.230469 139.070312 259.019531 138.894531 258.78125 138.917969 Z M 258.78125 138.917969 " fill-opacity="1" fill-rule="nonzero"/></g></svg>